<svg height="512pt" viewBox="0 -18 512 512" width="512pt" xmlns="http://www.w3.org/2000/svg"><path d="m482.121094 264.636719 29.757812 26.726562-166.441406 185.316407-108.226562-103.019532 27.578124-28.972656 78.402344 74.628906zm29.878906-151.601563v63.242188l-40 43.417968v-106.660156c0-5.339844-2.078125-10.363281-5.855469-14.140625-3.777343-3.777343-8.800781-5.855469-14.140625-5.855469l-193.65625-.003906c-.046875 0-.09375 0-.140625 0-.070312 0-.136719-.003906-.207031-.003906v.003906c-4.828125 0-10.1875 2.980469-13.035156 7.25l-.15625.230469-31.285156 45.519531-153.515626.007813h-.003906c-5.347656 0-10.367187 2.082031-14.144531 5.855469-3.777344 3.78125-5.859375 8.800781-5.859375 14.144531v216.03125c0 11.027343 8.972656 20 20 20h149.042969l42.023437 40h-191.066406c-33.085938 0-60-26.917969-60-60v-322.074219c0-33.085938 26.914062-60 60-60h154.257812l30.710938 46.0625c2.914062 4.371094 7.878906 6.976562 13.289062 6.976562h.039063l193.703125.003907h.011719c16.019531 0 31.082031 6.238281 42.414062 17.566406 11.332031 11.332031 17.574219 26.398437 17.574219 42.425781zm-296.597656-39.859375c-1.316406-1.566406-2.566406-3.199219-3.714844-4.921875l-18.835938-28.253906h-132.851562c-11.027344 0-20 8.972656-20 20v49.449219c6.339844-2.234375 13.078125-3.40625 20-3.40625h.011719l132.464843-.007813 19.292969-28.070312c1.121094-1.667969 2.347657-3.261719 3.632813-4.789063zm0 0"/></svg>