<?xml version="1.0" encoding="iso-8859-1"?>
<!-- Generator: Adobe Illustrator 19.0.0, SVG Export Plug-In . SVG Version: 6.00 Build 0)  -->
<svg version="1.1" id="Capa_1" xmlns="http://www.w3.org/2000/svg" x="0px" y="0px"
     viewBox="0 0 512 512" style="enable-background:new 0 0 512 512;" xml:space="preserve">
<g>
	<g>
		<g>
			<path d="M512,106.667c0-17.673-14.327-32-32-32h-42.667V96H480c5.891,0,10.667,4.776,10.667,10.667v284.683l-53.163-53.163
				c25.553-45.59,18.946-104.349-19.829-143.125c-0.552-0.552-1.113-1.094-1.675-1.634V10.667C416,4.776,411.224,0,405.333,0h-224
				c-0.57,0-1.133,0.058-1.689,0.147c-0.122,0.019-0.245,0.031-0.366,0.055c-0.161,0.032-0.319,0.078-0.479,0.117
				c-0.18,0.044-0.362,0.082-0.54,0.136c-0.115,0.035-0.227,0.081-0.341,0.119c-0.217,0.073-0.434,0.144-0.647,0.232
				c-0.086,0.036-0.169,0.08-0.254,0.118c-0.233,0.103-0.466,0.207-0.692,0.327c-0.08,0.042-0.154,0.093-0.233,0.138
				c-0.224,0.126-0.447,0.253-0.663,0.397c-0.117,0.078-0.226,0.167-0.339,0.249c-0.169,0.123-0.341,0.24-0.505,0.374
				c-0.275,0.225-0.54,0.464-0.793,0.717L99.125,77.792c-2.001,2-3.125,4.713-3.125,7.541v213.333H74.667V320h32h10.667h102.958
				c16.546,46.283,60.774,79.404,112.744,79.403c20.682-0.001,40.809-5.357,58.535-15.295L423.428,416H32
				c-5.891,0-10.667-4.776-10.667-10.667V106.667C21.333,100.776,26.109,96,32,96h42.667V74.667H32c-17.673,0-32,14.327-32,32
				v298.667c0,17.673,14.327,32,32,32h154.146c-5.189,51.275-47.736,53.283-52.813,53.333c-5.891,0-10.667,4.776-10.667,10.667
				c0,5.891,4.776,10.667,10.667,10.667h245.333c5.891,0,10.667-4.776,10.667-10.667c0-5.891-4.776-10.667-10.667-10.667
				c-2.006,0-47.392-0.648-52.803-53.333h118.874l11.827,11.84c6.085,6.097,14.351,9.514,22.965,9.493
				c8.618-0.015,16.874-3.471,22.933-9.6c6.187-6.202,9.341-14.28,9.48-22.4H512V106.667z M327.349,490.667H184.651
				c13.945-14.526,22.155-33.463,23.369-53.333h95.961C305.194,457.204,313.404,476.141,327.349,490.667z M117.333,298.667V89.749
				l53.333-53.333v38.251h-21.333V96h32C187.224,96,192,91.224,192,85.333v-64h202.667V177.09
				c-18.463-11.089-39.741-17.091-61.638-17.09c-17.637,0-34.382,3.817-49.457,10.667H149.333V192h102.243
				c-9.866,9.168-18.182,19.979-24.514,32h-77.729v21.333h69.013c-3.258,10.888-5.017,22.423-5.016,34.371
				c0,6.453,0.518,12.785,1.501,18.962H117.333z M234.679,279.713c-0.007-54.327,44.029-98.373,98.356-98.38
				c26.102-0.076,51.149,10.294,69.557,28.8c18.452,18.446,28.819,43.466,28.823,69.556c0.003,26.943-10.83,51.353-28.374,69.121
				l-0.903,0.902c-17.761,17.528-42.154,28.353-69.079,28.357C278.731,378.076,234.685,334.04,234.679,279.713z M425.547,356.512
				l15.726,15.725l-15.755,15.755l-15.726-15.725L425.547,356.512z M471.659,434.133l-31.056-31.056l15.755-15.755l31.056,31.056
				c2.157,2.164,3.24,4.992,3.253,7.825v0.105c-0.013,2.833-1.096,5.661-3.253,7.825
				C483.059,438.474,476.013,438.474,471.659,434.133z"/>
			<path d="M279.232,225.899l15.083,15.083c21.4-21.347,56.04-21.347,77.44,0l15.083-15.083
				C357.102,196.235,308.968,196.235,279.232,225.899z"/>
			<path d="M42.667,341.333V384c0,5.891,4.776,10.667,10.667,10.667H96v-21.333H64v-32H42.667z"/>
			<rect x="117.333" y="373.333" width="21.333" height="21.333"/>
			<rect x="149.333" y="117.333" width="213.333" height="21.333"/>
		</g>
	</g>
</g>
<g>
</g>
<g>
</g>
<g>
</g>
<g>
</g>
<g>
</g>
<g>
</g>
<g>
</g>
<g>
</g>
<g>
</g>
<g>
</g>
<g>
</g>
<g>
</g>
<g>
</g>
<g>
</g>
<g>
</g>
</svg>
