<?xml version="1.0" encoding="iso-8859-1"?>
<!-- Generator: Adobe Illustrator 21.0.0, SVG Export Plug-In . SVG Version: 6.00 Build 0)  -->
<svg xmlns="http://www.w3.org/2000/svg" xmlns:xlink="http://www.w3.org/1999/xlink" version="1.1" id="Capa_1" x="0px" y="0px" viewBox="0 0 511.999 511.999" style="enable-background:new 0 0 511.999 511.999;" xml:space="preserve" width="512" height="512">
<g>
	<path d="M419.541,429.635v-27.432c0-13.92-11.325-25.244-25.245-25.244h-3.312V156.049   c0.001-67.831-53.121-123.732-119.926-128.104L258.154,7.458c-2.76-4.38-7.493-7.16-12.663-7.437   c-5.17-0.271-10.171,1.985-13.375,6.038l-20.348,25.713L182.376,18.45c-4.496-2.035-9.775-1.86-14.126,0.47   c-4.35,2.329-7.423,6.625-8.222,11.491l-6.75,41.091l-77.166,76.775c-9.827,9.829-10.949,25.627-2.61,36.745l42.137,56.183   c7.27,9.696,19.881,13.637,31.383,9.805l47.272-15.758v8.668l-51.459,77.189c-3.091,4.634-4.725,10.027-4.725,15.599v40.251h-3.083   c-13.92,0-25.245,11.324-25.245,25.244v27.414h-2.397c-13.92,0-25.245,11.325-25.245,25.245v31.894   c0,13.92,11.325,25.244,25.245,25.244H418.83c13.92,0,25.245-11.324,25.245-25.244v-31.894   C444.075,441.18,433.133,430.014,419.541,429.635z M168.111,337.28l53.184-79.775c1.963-2.945,3.001-6.373,3.001-9.913v-29.167   c0-5.728-2.773-11.146-7.419-14.496c-4.646-3.349-10.664-4.268-16.104-2.459l-61.946,20.649l-40.338-53.784l79.137-78.736   c2.418-2.395,3.984-5.436,4.522-8.76l4.518-27.506l22.697,10.289c6.688,3.035,14.548,1.136,19.124-4.633l14.85-18.765l6.292,9.988   c2.919,4.638,7.936,7.426,13.438,7.459c53.993,0.249,97.918,44.381,97.917,98.378v220.909H168.111V337.28z M139.784,406.958   h249.757v22.658H139.784V406.958z M414.075,481.999H112.142v-22.383h301.933V481.999z"/>
	<path d="M202.374,94.498l-34.279,32.756c-5.99,5.724-6.205,15.219-0.482,21.208c2.947,3.084,6.894,4.637,10.847,4.637   c3.725,0,7.456-1.379,10.361-4.155l34.279-32.756c5.99-5.724,6.205-15.219,0.482-21.208   C217.858,88.99,208.362,88.777,202.374,94.498z"/>
</g>















</svg>
