<?xml version="1.0" encoding="iso-8859-1"?>
<!-- Generator: Adobe Illustrator 19.0.0, SVG Export Plug-In . SVG Version: 6.00 Build 0)  -->
<svg version="1.1" id="Capa_1" xmlns="http://www.w3.org/2000/svg" x="0px" y="0px"
     viewBox="0 0 512 512" style="enable-background:new 0 0 512 512;" xml:space="preserve">
<g>
	<g>
		<path d="M486.4,51.2H25.6C11.468,51.215,0.015,62.668,0,76.8v358.4c0.015,14.132,11.468,25.585,25.6,25.6h460.8
			c14.132-0.015,25.585-11.468,25.6-25.6V76.8C511.985,62.668,500.532,51.215,486.4,51.2z M162.133,443.733H25.6
			c-4.711-0.005-8.529-3.822-8.533-8.533V76.8c0.005-4.711,3.822-8.529,8.533-8.533h136.533V443.733z M332.8,443.733H179.2V68.267
			h153.6V443.733z M494.933,435.2c-0.005,4.711-3.822,8.529-8.533,8.533H349.867V68.267H486.4c4.711,0.005,8.529,3.822,8.533,8.533
			V435.2z"/>
	</g>
</g>
<g>
</g>
<g>
</g>
<g>
</g>
<g>
</g>
<g>
</g>
<g>
</g>
<g>
</g>
<g>
</g>
<g>
</g>
<g>
</g>
<g>
</g>
<g>
</g>
<g>
</g>
<g>
</g>
<g>
</g>
</svg>
