<?xml version="1.0" encoding="iso-8859-1"?>
<!-- Generator: Adobe Illustrator 19.0.0, SVG Export Plug-In . SVG Version: 6.00 Build 0)  -->
<svg version="1.1" id="Layer_1" xmlns="http://www.w3.org/2000/svg" xmlns:xlink="http://www.w3.org/1999/xlink" x="0px" y="0px"
	 viewBox="0 0 489.55 489.55" style="enable-background:new 0 0 489.55 489.55;" xml:space="preserve">
<g>
	<path d="M484.075,231.275c-63.5-70.8-148.8-110.3-239.3-110.3s-175.8,39.5-239.3,110.3c-7.3,7.3-7.3,19.8,0,27
		c63.5,70.8,148.8,110.3,239.3,110.3s175.8-38.5,239.3-110.3C491.375,250.975,491.375,238.575,484.075,231.275z M244.775,304.075
		c-32.3,0-59.3-27-59.3-59.3s27-59.3,59.3-59.3s59.3,27,59.3,59.3S277.075,304.075,244.775,304.075z M178.875,169.775
		c-20.8,18.3-34,45.1-34,75s13.1,56.7,34,75c-47.9-12.2-92.3-37.6-129.7-75C86.575,207.375,130.975,181.875,178.875,169.775z
		 M310.675,319.775c20.8-18.3,34-45.1,34-75s-13.1-56.7-34-75c47.9,12.2,92.3,37.6,129.7,75
		C402.975,282.175,358.575,307.675,310.675,319.775z"/>
</g>
<g>
</g>
<g>
</g>
<g>
</g>
<g>
</g>
<g>
</g>
<g>
</g>
<g>
</g>
<g>
</g>
<g>
</g>
<g>
</g>
<g>
</g>
<g>
</g>
<g>
</g>
<g>
</g>
<g>
</g>
</svg>
