<svg xmlns="http://www.w3.org/2000/svg" viewBox="0 0 20 14">
    <title>Book</title>
    <path
        fill="#ffffff"
        d="M19.202 1.398v10.367s-3.058-.83-5.33-.408c-2.036.377-3.534 1.442-3.786 1.63v.032l-.02-.017-.022.016v-.033c-.253-.188-1.75-1.252-3.785-1.63-2.274-.422-5.632.408-5.632.408V1.367c-.196.028-.404.06-.628.09v11.17s3.66-.91 6.148-.447c2.448.454 3.927 1.82 3.927 1.82s1.48-1.366 3.926-1.82c2.49-.462 6 .446 6 .446V1.506s-.305-.05-.798-.108zm-13.128 8.91c1.99.37 3.53 1.48 3.53 1.48v-10.2S8.055.476 6.06.106C4.043-.27 1.405.47 1.405.47v10.2s2.646-.738 4.67-.362zm12.35.4V.508S16.008-.23 13.99.144c-1.995.37-3.592 1.482-3.592 1.482v10.2s1.588-1.11 3.58-1.48c2.023-.375 4.45.363 4.45.363z"/>
</svg>
