<svg xmlns="http://www.w3.org/2000/svg" viewBox="0 0 14 16">
    <title>Laboratorie</title>
    <path
        fill="#3D4853"
        d="M9.88318 1.876647c-.19212.128685-.4133038.193027-.6624828.193027h-.0747964v4.954348l4.477101 5.919482c.2991858.400422.420356.840094.363297 1.319014-.0711635.478921-.3064517.879344-.7052235 1.201055-.406038.321711-.8764006.482566-1.410661.482566l-9.7235368.053619c-.5342602.007292-1.0044093-.149918-1.410447-.471629-.406038-.314633-.6447454-.715056-.7159088-1.201268-.0711635-.478921.0427408-.918592.3419265-1.318801l4.519842-5.983823V2.069674h-.106852c-.2493928 0-.4701492-.064342-.662483-.193027-.049793-.035817-.099586-.075066-.1495927-.117961-.2137042-.200318-.3205562-.439671-.3205562-.718487 0-.293186.106852-.539831.3205562-.739935C4.191171.100159 4.461934 0 4.775438 0h4.4450455c.313504 0 .580634.100159.8013904.300264.2278083.200318.3419263.446749.3419263.739935 0 .278816-.1139043.518383-.3419266.718487-.0425272.042895-.088901.082144-.138694.117961z"/>
</svg>
