<svg xmlns="http://www.w3.org/2000/svg" viewBox="0 0 16 15">
    <title>Most commented</title>
    <path
        fill="#3D4853"
        d="M3.0883487 12.63659l-3.01741.835482.8260217-3.185636C.32799 9.275535 0 8.101045 0 6.847109 0 3.065755 2.96587 0 6.624731 0c3.658212 0 6.6243255 3.065755 6.6243255 6.847109 0 3.781355-2.9661134 6.847277-6.6243254 6.847277-1.300921.000336-2.512885-.388336-3.5363822-1.057796zm12.8468 2.16081l-2.744856-.759979C12.2587557 14.646227 11.1565277 15 9.9737023 15c-.84331 0-1.6453066-.179697-2.3739297-.503269 3.6576438-.494964 6.491701-3.735466 6.491701-7.649034 0-1.134054-.240169-2.210642-.6668562-3.181694C14.9815348 4.792423 16 6.658436 16 8.771092c0 1.140598-.298121 2.20888-.8157136 3.12859l.7508623 2.897718z"/>
</svg>
