<?xml version="1.0" encoding="UTF-8" standalone="no"?>
<svg
   xmlns:dc="http://purl.org/dc/elements/1.1/"
   xmlns:cc="http://creativecommons.org/ns#"
   xmlns:rdf="http://www.w3.org/1999/02/22-rdf-syntax-ns#"
   xmlns:svg="http://www.w3.org/2000/svg"
   xmlns="http://www.w3.org/2000/svg"
   xmlns:sodipodi="http://sodipodi.sourceforge.net/DTD/sodipodi-0.dtd"
   xmlns:inkscape="http://www.inkscape.org/namespaces/inkscape"
   viewBox="0 0 506.25 506.25"
   height="506.25"
   width="506.25"
   version="1.1"
   id="svg2"
   inkscape:version="0.91 r13725"
   sodipodi:docname="Reply-arrow.svg">
  <sodipodi:namedview
     pagecolor="#ffffff"
     bordercolor="#666666"
     borderopacity="1"
     objecttolerance="10"
     gridtolerance="10"
     guidetolerance="10"
     inkscape:pageopacity="0"
     inkscape:pageshadow="2"
     inkscape:window-width="857"
     inkscape:window-height="480"
     id="namedview6"
     showgrid="false"
     inkscape:zoom="0.46617284"
     inkscape:cx="253.125"
     inkscape:cy="253.125"
     inkscape:window-x="65"
     inkscape:window-y="24"
     inkscape:window-maximized="0"
     inkscape:current-layer="svg2" />
  <metadata
     id="metadata8">
    <rdf:RDF>
      <cc:Work
         rdf:about="">
        <dc:format>image/svg+xml</dc:format>
        <dc:type
           rdf:resource="http://purl.org/dc/dcmitype/StillImage" />
        <dc:title />
      </cc:Work>
    </rdf:RDF>
  </metadata>
  <defs
     id="defs6" />
  <path
     id="path3338"
     d="m 458.71113,425.87449 c -1.22881,-5.80671 -5.25508,-17.51904 -8.77325,-25.52115 -13.54662,-30.81193 -40.33281,-60.71119 -71.27559,-79.55923 -30.64487,-18.66656 -67.29109,-30.6816 -110.50201,-36.22983 -15.48052,-1.98768 -53.80347,-4.32311 -56.15188,-3.42194 -1.26898,0.48695 -1.45225,4.29945 -1.45225,30.21059 l 0,29.65328 -2.91165,2.71989 c -3.81488,3.56363 -7.90636,3.61104 -12.23408,0.14175 C 190.1807,339.6755 67.676977,231.52959 66.359454,229.94207 c -2.085079,-2.51236 -2.396996,-7.65963 -0.673062,-11.10692 1.025254,-2.05017 24.573715,-23.37742 66.644158,-60.35793 59.88342,-52.63837 65.34998,-57.21001 68.72087,-57.47047 2.80356,-0.21661 4.29216,0.25865 6.34909,2.02709 l 2.68689,2.31004 0.46875,30.31666 0.46875,30.31668 15,0.60313 c 62.51728,2.51373 114.06794,23.11458 153.15246,61.20331 38.37789,37.40013 63.64424,88.71659 75.51124,153.36485 2.73162,14.8811 5.50866,39.26012 5.07536,44.55534 l -0.30365,3.71088 -0.74918,-3.54024 z"
     style="fill:#4d4d4d" />
</svg>
