<?xml version="1.0" encoding="UTF-8" standalone="no"?>
<svg width="42px" height="42px" viewBox="0 0 42 42" version="1.1" xmlns="http://www.w3.org/2000/svg" xmlns:xlink="http://www.w3.org/1999/xlink">
    <!-- Generator: Sketch 43.1 (39012) - http://www.bohemiancoding.com/sketch -->
    <desc>Created with Sketch.</desc>
    <defs></defs>
    <g id="Article" stroke="none" stroke-width="1" fill="none" fill-rule="evenodd">
        <g id="Article-Expanded" transform="translate(-1190.000000, -264.000000)" fill="#28B428">
            <g transform="translate(1061.000000, 264.000000)">
                <polygon id="Star" points="150 37.8686033 147.46873 42 145.992513 37.3784323 142.553297 40.7795563 142.217926 35.9364064 138.07064 38.4095967 138.895605 33.6263309 134.281274 35.0278547 136.218631 30.5824588 131.405423 30.8308647 134.342581 26.9816892 129.610222 26.0625406 133.376482 23.0332854 129 21 133.376482 18.9667146 129.610222 15.9374594 134.342581 15.0183108 131.405423 11.1691353 136.218631 11.4175412 134.281274 6.97214532 138.895605 8.37366915 138.07064 3.59040325 142.217926 6.06359359 142.553297 1.22044367 145.992513 4.62156769 147.46873 -3.73978626e-13 150 4.13139673 152.53127 -3.73978626e-13 154.007487 4.62156769 157.446703 1.22044367 157.782074 6.06359359 161.92936 3.59040325 161.104395 8.37366915 165.718726 6.97214532 163.781369 11.4175412 168.594577 11.1691353 165.657419 15.0183108 170.389778 15.9374594 166.623518 18.9667146 171 21 166.623518 23.0332854 170.389778 26.0625406 165.657419 26.9816892 168.594577 30.8308647 163.781369 30.5824588 165.718726 35.0278547 161.104395 33.6263309 161.92936 38.4095967 157.782074 35.9364064 157.446703 40.7795563 154.007487 37.3784323 152.53127 42"></polygon>
            </g>
        </g>
    </g>
</svg>
