<?xml version="1.0"?>
<svg xmlns="http://www.w3.org/2000/svg" id="Capa_1" enable-background="new 0 0 512 512" height="512px" viewBox="0 0 512 512" width="512px"><g transform="matrix(-1 0 0 1 512 0)"><circle cx="183.7" cy="143.533" r="15" data-original="#000000" class="active-path" fill="#000000"/><path d="m183.7 176.734c-8.284 0-15 6.716-15 15v32.133c0 8.284 6.716 15 15 15s15-6.716 15-15v-32.133c0-8.285-6.716-15-15-15z" data-original="#000000" class="active-path" fill="#000000"/><path d="m183.7 64.267c-65.855 0-119.434 53.578-119.434 119.434 0 65.855 53.578 119.433 119.434 119.433s119.434-53.578 119.434-119.434-53.578-119.433-119.434-119.433zm0 208.866c-49.313 0-89.434-40.12-89.434-89.433 0-49.314 40.12-89.434 89.434-89.434s89.434 40.12 89.434 89.434-40.12 89.433-89.434 89.433z" data-original="#000000" class="active-path" fill="#000000"/><path d="m507.606 438.193-164.058-164.058c15.173-26.714 23.852-57.578 23.852-90.435 0-101.292-82.407-183.7-183.7-183.7s-183.7 82.408-183.7 183.7 82.407 183.7 183.7 183.7c32.856 0 63.721-8.679 90.435-23.852l164.058 164.059c2.813 2.813 6.628 4.394 10.606 4.394s7.794-1.581 10.606-4.394l48.2-48.2c5.86-5.859 5.86-15.356.001-21.214zm-477.606-254.493c0-84.75 68.949-153.7 153.7-153.7s153.7 68.95 153.7 153.7-68.949 153.7-153.7 153.7-153.7-68.949-153.7-153.7zm418.8 292.087-149.463-149.464c9.899-8.041 18.946-17.088 26.987-26.987l149.463 149.464z" data-original="#000000" class="active-path" fill="#000000"/></g> </svg>
