<svg xmlns="http://www.w3.org/2000/svg" viewBox="0 0 18 18">
    <title>Search_icon</title>
    <path
        d="M11.603133 10.3014667L18 16.6983335 16.698334 18l-6.396867-6.3968668c-1.075582.80556-2.411342 1.2827075-3.858547 1.2827075C2.884594 12.8858407 0 10.001247 0 6.4429203 0 2.8845937 2.884594 0 6.44292 0c3.558327 0 6.442921 2.8845937 6.442921 6.4429203 0 1.4472043-.477148 2.7829648-1.282708 3.8585464zm-5.160213.7435396c2.541662 0 4.602086-2.060424 4.602086-4.602086 0-2.5416618-2.060424-4.602086-4.602086-4.602086s-4.602086 2.0604242-4.602086 4.602086c0 2.541662 2.060424 4.602086 4.602086 4.602086z"/>
</svg>
