<svg xmlns="http://www.w3.org/2000/svg" xmlns:xlink="http://www.w3.org/1999/xlink" version="1.1" width="25.66666666666663" height="25.333333333333258" style="" xml:space="preserve"><rect id="backgroundrect" width="100%" height="100%" x="0" y="0" fill="none" stroke="none" class="" style=""/>
















<g class="currentLayer" style=""><title>Layer 1</title><g id="svg_1" class="" opacity="1" fill="#ffffff" fill-opacity="1">
	<g id="history" opacity="1" fill="#ffffff" fill-opacity="1">
		<path style="" d="M14.028477648609712,4.060811087426362 c-2.936876741915963,0 -5.538110427612958,1.6689189135888003 -6.880682652488827,4.216216202750653 L5.217847422861822,6.256757026358993 v5.709459441224841 h5.454199663558217 l-2.34950139353277,-2.4594594516045474 c1.0908399327116434,-2.1959459389326312 3.188609034080188,-3.6891891774068206 5.705931955722442,-3.6891891774068206 C17.468818974854123,5.817567838572467 20.321784952715344,8.804054315520846 20.321784952715344,12.405405655370362 s-2.852965977861221,6.587837816797894 -6.293307304105634,6.587837816797894 c-2.76905521380648,0 -5.034645843284507,-1.8445945887034099 -5.957664247886667,-4.3918918778652625 H6.308687355573466 c0.92301840460216,3.5135135022922097 4.027716674627605,6.148648629011369 7.719790293036246,6.148648629011369 C18.475748143511023,20.75000022331436 22.00000023381018,16.972973208350236 22.00000023381018,12.405405655370362 C22.00000023381018,7.8378381023904895 18.391837379456284,4.060811087426362 14.028477648609712,4.060811087426362 zM12.769816187788583,8.452702965291625 V12.932432680714195 l3.943805910572864,2.4594594516045474 l0.6712861124379335,-1.1418918882449682 l-3.3564305621896713,-2.1081081013753264 v-3.6891891774068206 H12.769816187788583 z" id="svg_2" opacity="1" fill="#ffffff" fill-opacity="1"/>
	</g>
</g><g id="svg_3" class="">
</g><g id="svg_4" class="">
</g><g id="svg_5" class="">
</g><g id="svg_6" class="">
</g><g id="svg_7" class="">
</g><g id="svg_8" class="">
</g><g id="svg_9" class="">
</g><g id="svg_10" class="">
</g><g id="svg_11" class="">
</g><g id="svg_12" class="">
</g><g id="svg_13" class="">
</g><g id="svg_14" class="">
</g><g id="svg_15" class="">
</g><g id="svg_16" class="">
</g><g id="svg_17" class="">
</g></g></svg>